<svg width="24" height="24" viewBox="0 0 24 24" fill="none" xmlns="http://www.w3.org/2000/svg">
<rect width="24" height="24" fill="#CCCFD7"/>
<g id="Landing Page V1">
<path d="M-1013 -9217C-1013 -9218.1 -1012.1 -9219 -1011 -9219H3114C3115.1 -9219 3116 -9218.1 3116 -9217V4017C3116 4018.1 3115.1 4019 3114 4019H-1011C-1012.1 4019 -1013 4018.1 -1013 4017V-9217Z" fill="#E9E9E9"/>
<path d="M-1011 -9218H3114V-9220H-1011V-9218ZM3115 -9217V4017H3117V-9217H3115ZM3114 4018H-1011V4020H3114V4018ZM-1012 4017V-9217H-1014V4017H-1012ZM-1011 4018C-1011.55 4018 -1012 4017.55 -1012 4017H-1014C-1014 4018.66 -1012.66 4020 -1011 4020V4018ZM3115 4017C3115 4017.55 3114.55 4018 3114 4018V4020C3115.66 4020 3117 4018.66 3117 4017H3115ZM3114 -9218C3114.55 -9218 3115 -9217.55 3115 -9217H3117C3117 -9218.66 3115.66 -9220 3114 -9220V-9218ZM-1011 -9220C-1012.66 -9220 -1014 -9218.66 -1014 -9217H-1012C-1012 -9217.55 -1011.55 -9218 -1011 -9218V-9220Z" fill="black" fill-opacity="0.1"/>
<g id="Landing-Page-V1__Desktop" clip-path="url(#clip0_0_1)">
<rect width="1920" height="8907" transform="translate(-240 -8691)" fill="white"/>
<g id="Footer_V1">
<rect width="1920" height="614" transform="translate(-240 -398)" fill="#15B2F5"/>
<g id="Logo + Description">
<g id="Media Socials">
<g id="youtube">
<path id="Subtract" fill-rule="evenodd" clip-rule="evenodd" d="M21.8392 5.15941C22.1799 5.51057 22.4218 5.94541 22.5406 6.42C22.8578 8.1787 23.0118 9.96295 23.0006 11.75C23.0069 13.5103 22.8529 15.2676 22.5406 17C22.4218 17.4746 22.1799 17.9094 21.8392 18.2606C21.4986 18.6118 21.0713 18.8668 20.6006 19C18.8806 19.46 12.0006 19.46 12.0006 19.46C12.0006 19.46 5.12057 19.46 3.40057 19C2.93939 18.8738 2.51855 18.6308 2.17872 18.2945C1.83888 17.9581 1.59153 17.5398 1.46057 17.08C1.14334 15.3213 0.989351 13.537 1.00057 11.75C0.991808 9.97631 1.14579 8.20556 1.46057 6.46C1.57936 5.98541 1.82129 5.55057 2.16192 5.19941C2.50255 4.84824 2.92982 4.59318 3.40057 4.46C5.12057 4 12.0006 4 12.0006 4C12.0006 4 18.8806 4 20.6006 4.42C21.0713 4.55318 21.4986 4.80824 21.8392 5.15941ZM15.5 11.75L9.75 15.02V8.47998L15.5 11.75Z" fill="white"/>
</g>
</g>
</g>
</g>
</g>
</g>
<defs>
<clipPath id="clip0_0_1">
<rect width="1920" height="8907" fill="white" transform="translate(-240 -8691)"/>
</clipPath>
</defs>
</svg>
